<?xml version="1.0" encoding="UTF-8"?>
<svg xmlns="http://www.w3.org/2000/svg" xmlns:xlink="http://www.w3.org/1999/xlink" width="20px" height="20px" viewBox="0 0 20 20">
  <!-- Generator: Sketch 49.1 (51147) - http://www.bohemiancoding.com/sketch -->
  <title>add</title>
  <desc>Created with Sketch.</desc>
  <defs></defs>
  <g id="add" stroke="none" stroke-width="1" fill="none" fill-rule="evenodd">
    <path d="M11.625062,9.64849968 L18.8761366,9.64849968 C19.1266552,9.64849968 19.3297405,9.85418032 19.3297405,10.1079003 C19.3297405,10.3616202 19.1266552,10.5673008 18.8761366,10.5673008 L11.625062,10.5673008 L11.625062,18.1868036 C11.625062,18.4422243 11.4180026,18.6492837 11.1625819,18.6492837 C10.9071612,18.6492837 10.7001018,18.4422243 10.7001018,18.1868036 L10.7001018,10.5673008 L3.4536039,10.5673008 C3.20308539,10.5673008 3,10.3616202 3,10.1079003 C3,9.85418032 3.20308539,9.64849968 3.4536039,9.64849968 L10.7001018,9.64849968 L10.7001018,2.4624801 C10.7001018,2.2070594 10.9071612,2 11.1625819,2 C11.4180026,2 11.625062,2.2070594 11.625062,2.4624801 L11.625062,9.64849968 Z" id="Combined-Shape" stroke="#40BBC0" stroke-width="0.2" fill="#40BBC0"></path>
  </g>
</svg>
