<?xml version="1.0" encoding="UTF-8"?>
<svg xmlns="http://www.w3.org/2000/svg" xmlns:xlink="http://www.w3.org/1999/xlink" width="16px" height="15px" viewBox="0 0 16 15">
  <!-- Generator: Sketch 49 (51002) - http://www.bohemiancoding.com/sketch -->
  <title>Icon / White / Add</title>
  <desc>Created with Sketch.</desc>
  <defs></defs>
  <g id="App-Design" stroke="none" stroke-width="1" fill="none" fill-rule="evenodd">
    <g id="Profile" transform="translate(-373.000000, -44.000000)" fill="#FFFFFF" fill-rule="nonzero">
      <g id="Icon-/-White-/-Edit" transform="translate(373.000000, 44.000000)">
        <path d="M8.00214972,2.01967627 L8.00214972,0.75 L1.40681969,0.75 C1.05064301,0.75 0.761904762,1.03422671 0.761904762,1.38483813 L0.761904762,14.3651619 C0.761904762,14.7157733 1.05064301,15 1.40681969,15 L14.5931803,15 C14.949357,15 15.2380952,14.7157733 15.2380952,14.3651619 L15.2380952,7.87288387 L13.9482654,7.87288387 L13.9482654,13.7303237 L2.05173462,13.7303237 L2.05173462,2.01967627 L8.00214972,2.01967627 Z" id="Shape"></path>
        <path d="M15.8232537,0.173015127 C15.5886371,-0.057671709 15.2085579,-0.057671709 14.9739413,0.173015127 L6.28651644,8.72556472 C6.12574546,8.87304687 6.05956639,9.09516071 6.11394133,9.30477084 C6.16831626,9.51438096 6.33457289,9.67805639 6.5474886,9.73158714 C6.76040432,9.78511789 6.98602094,9.71996627 7.1358289,9.56169131 L15.8232537,1.01111372 C15.9364013,0.900108915 16,0.74932217 16,0.592064421 C16,0.434806672 15.9364013,0.284019928 15.8232537,0.173015127 Z" id="Shape"></path>
      </g>
    </g>
  </g>
</svg>
