<?xml version="1.0" encoding="UTF-8"?>
<svg xmlns="http://www.w3.org/2000/svg" xmlns:xlink="http://www.w3.org/1999/xlink" width="21px" height="21px" viewBox="0 0 21 21">
  <!-- Generator: Sketch 48.2 (47327) - http://www.bohemiancoding.com/sketch -->
  <title>Back</title>
  <desc>Created with Sketch.</desc>
  <defs>
    <path d="M1.20687757,9.78333771 C1.25942918,9.6984327 1.32253808,9.61820705 1.39620428,9.54454086 C1.46987047,9.47087466 1.55009612,9.40776576 1.63500113,9.35521415 L9.74234758,1.2478677 C10.2563723,0.733842987 11.089771,0.733842987 11.6037957,1.2478677 C12.1178204,1.76189241 12.1178204,2.59529113 11.6037957,3.10931585 L4.21311157,10.5 L11.6037957,17.8906842 C12.1178204,18.4047089 12.1178204,19.2381076 11.6037957,19.7521323 C11.089771,20.266157 10.2563723,20.266157 9.74234758,19.7521323 L1.83062002,11.8404047 C1.75520709,11.7972467 1.68421572,11.7434706 1.61982157,11.6790764 L1.17258698,11.2318419 C0.782062693,10.8413176 0.782062693,10.2081526 1.17258698,9.81762829 L1.20687757,9.78333771 Z" id="path-1"></path>
  </defs>
  <g id="App-Design" stroke="none" stroke-width="1" fill="none" fill-rule="evenodd">
    <g id="Back">
      <g>
        <mask id="mask-2" fill="white">
          <use xlink:href="#path-1"></use>
        </mask>
        <use id="Combined-Shape" fill="#FFFFFF" xlink:href="#path-1"></use>
      </g>
    </g>
  </g>
</svg>
