<?xml version="1.0" encoding="UTF-8"?>
<svg xmlns="http://www.w3.org/2000/svg" xmlns:xlink="http://www.w3.org/1999/xlink" width="29px" height="29px" viewBox="0 0 29 29">
  <!-- Generator: Sketch 48.2 (47327) - http://www.bohemiancoding.com/sketch -->
  <title>explore-icon</title>
  <desc>Created with Sketch.</desc>
  <defs></defs>
  <g id="Symbols" stroke="none" stroke-width="1" fill="none" fill-rule="evenodd">
    <g id="explore-icon" fill="#A2A2A2">
      <g id="Explore" transform="translate(2.000000, 1.000000)">
        <g id="Group">
          <path d="M12.5,0.464528571 C5.60382737,0.464528571 -2.2875e-05,6.22851429 0,13.3216714 C-2.2875e-05,20.4149571 5.60382737,26.1788143 12.5,26.1788143 C19.3961725,26.1788143 25.0000225,20.4149571 25,13.3216714 C25.0000225,6.22851429 19.3961725,0.464528571 12.5,0.464528571 Z M12.5,1.75024286 C18.7205775,1.75024286 23.7500212,6.92344286 23.75,13.3216714 C23.7500212,19.7200286 18.7205775,24.8931 12.5,24.8931 C6.27942237,24.8931 1.24997937,19.7200286 1.25,13.3216714 C1.24997937,6.92344286 6.27942237,1.75024286 12.5,1.75024286 Z" id="Shape" fill-rule="nonzero"></path>
          <path d="M13.75,13.3228286 C13.75,14.032909 13.1903559,14.6085429 12.5,14.6085429 C11.8096441,14.6085429 11.25,14.032909 11.25,13.3228286 C11.25,12.6127482 11.8096441,12.0371143 12.5,12.0371143 C13.1903559,12.0371143 13.75,12.6127482 13.75,13.3228286 Z" id="Shape" fill-rule="nonzero"></path>
          <path d="M6.21826175,7.53852857 C5.99881542,7.55017149 5.80143058,7.67948079 5.69838674,7.87910526 C5.59534291,8.07872972 5.60177664,8.31934562 5.715332,8.51284286 L9.96337888,15.7149 C10.0375173,15.8405105 10.1512525,15.9362081 10.285645,15.9860571 L18.5375975,19.0697143 C18.7860701,19.1622585 19.0642775,19.0840821 19.23249,18.8744492 C19.4007025,18.6648163 19.4225702,18.3690275 19.28711,18.1356429 L15.129395,10.9812857 C15.0556908,10.8547117 14.9419044,10.7580631 14.8071287,10.7075571 L6.46484375,7.5762 C6.38591656,7.54687168 6.3020558,7.53419108 6.21826175,7.53891429 L6.21826175,7.53852857 Z M7.7075195,9.41181429 L14.1699225,11.8375714 L17.3120112,17.2441286 L10.9179687,14.8534714 L7.7075195,9.41181429 Z" id="Shape"></path>
          <polygon id="Shape" points="11.875 3.03595714 11.875 5.60738571 13.125 5.60738571 13.125 3.03595714"></polygon>
          <polygon id="Shape" points="20 12.6788143 20 13.9645286 22.5 13.9645286 22.5 12.6788143"></polygon>
          <polygon id="Shape" points="11.875 21.0359571 11.875 23.6073857 13.125 23.6073857 13.125 21.0359571"></polygon>
          <polygon id="Shape" points="2.5 12.6788143 2.5 13.9645286 5 13.9645286 5 12.6788143"></polygon>
        </g>
      </g>
    </g>
  </g>
</svg>
