<?xml version="1.0" encoding="UTF-8"?>
<svg xmlns="http://www.w3.org/2000/svg" xmlns:xlink="http://www.w3.org/1999/xlink" width="29px" height="29px" viewBox="0 0 29 29">
  <!-- Generator: Sketch 48.2 (47327) - http://www.bohemiancoding.com/sketch -->
  <title>favorites-icon</title>
  <desc>Created with Sketch.</desc>
  <defs></defs>
  <g id="Symbols" stroke="none" stroke-width="1" fill="none" fill-rule="evenodd">
    <g id="favorites-icon" fill="#A2A2A2" fill-rule="nonzero" stroke="#A2A2A2" stroke-width="0.1">
      <g id="Heart" transform="translate(1.000000, 2.000000)">
        <path d="M7.0567949,0 C5.2458949,0 3.4374449,0.71830814 2.06200323,2.15297965 C-0.688909185,5.02227035 -0.685759185,9.62842151 2.06200323,12.4999826 L13.2820699,24.2278314 C13.3922606,24.3439348 13.5455411,24.4097156 13.7058907,24.4097156 C13.8662404,24.4097156 14.0195208,24.3439348 14.1297116,24.2278314 C17.8733116,20.323093 21.6152496,16.413907 25.3588788,12.5090814 C28.1097913,9.63974128 28.1097913,5.03140116 25.3588788,2.16206395 C22.6079955,-0.707270349 18.1111074,-0.707334302 15.3601949,2.16206395 L13.7104407,3.87899709 L12.0607157,2.15297965 C10.6852449,0.718311047 8.8676949,3.30484993e-14 7.0567949,3.30484993e-14 Z M7.0567949,1.14462209 C8.55397823,1.14462209 10.0536407,1.74309302 11.2130449,2.95239826 L13.2911699,5.12354651 C13.4013615,5.23965922 13.5546483,5.30544611 13.7150053,5.30544611 C13.8753623,5.30544611 14.0286492,5.23965922 14.1388407,5.12354651 L16.2078366,2.97056686 C18.5266449,0.551906977 22.192458,0.551959302 24.5112371,2.97056686 C26.8299871,5.38917151 26.8299871,9.29105523 24.5112371,11.7096628 C20.9100871,15.4658547 17.3115616,19.2271628 13.7104407,22.9832965 L2.90967406,11.700593 C0.592615818,9.27913663 0.590894985,5.37095058 2.90967406,2.95239826 C4.06904906,1.74309593 5.55961156,1.14462209 7.0567949,1.14462209 Z" id="Shape"></path>
      </g>
    </g>
  </g>
</svg>
