<?xml version="1.0" encoding="UTF-8"?>
<svg xmlns="http://www.w3.org/2000/svg" xmlns:xlink="http://www.w3.org/1999/xlink" width="21px" height="20px" viewBox="0 0 21 20">
  <!-- Generator: Sketch 48.2 (47327) - http://www.bohemiancoding.com/sketch -->
  <title>Shape</title>
  <desc>Created with Sketch.</desc>
  <defs></defs>
  <g id="Icon-/-White-/-Heart" stroke="none" stroke-width="1" fill="none" fill-rule="evenodd">
    <path d="M5.52238815,0 C4.10381581,0 2.68633838,0.592134118 1.61281391,1.77205882 C-0.534279678,4.13186824 -0.538613699,7.91792471 1.60588838,10.2793976 L10.0114733,19.5367624 C10.2609935,19.8125271 10.7323318,19.8125271 10.9818743,19.5367624 C13.7855977,16.4552329 16.583736,13.3757035 19.3874594,10.2941035 C21.5345307,7.93427059 21.5345307,4.14660941 19.3874594,1.78676471 C17.2403882,-0.573072941 13.7154041,-0.573124706 11.5683105,1.78676471 L10.5071403,2.95588235 L9.4320073,1.77205882 C8.31822539,0.510308235 6.7986073,0.0203341176 5.52243284,0 L5.52238815,0 Z M5.52238815,1.38970588 C6.58136901,1.38970588 7.63664135,1.84336 8.46153922,2.75 L10.0183988,4.46323529 C10.267919,4.73899294 10.7392573,4.73899294 10.9887999,4.46323529 L12.5386669,2.75735294 C14.1884626,0.944037647 16.7741882,0.944075294 18.4239839,2.75735294 C20.0737573,4.57063294 20.0737573,7.50289412 18.4239839,9.31617412 C15.7830999,12.2187859 13.1409871,15.1194918 10.500103,18.0220565 L2.57624476,9.30881176 C0.927476698,7.49318118 0.926449038,4.56323529 2.57624476,2.75 C3.40112029,1.84336471 4.46338496,1.38970588 5.52238815,1.38970588 Z" id="Shape" fill="#FFFFFF" fill-rule="nonzero"></path>
  </g>
</svg>
