<?xml version="1.0" encoding="UTF-8"?>
<svg xmlns="http://www.w3.org/2000/svg" xmlns:xlink="http://www.w3.org/1999/xlink" width="500px" height="330px" viewBox="0 0 500 330">
  <!-- Generator: Sketch 48.2 (47327) - http://www.bohemiancoding.com/sketch -->
  <title>Fill 3</title>
  <desc>Created with Sketch.</desc>
  <defs>
    <path d="M365.40438,308.171607 C343.174726,287.00869 321.823964,264.939553 299.817675,243.54887 C290.548035,234.539971 285.876797,223.951243 294.927928,213.808357 C304.746268,202.802865 315.419221,208.753875 324.251842,217.496239 C344.340108,237.394323 364.234143,257.47656 384.43409,277.253492 C405.459517,297.839722 431.156181,299.715163 449.151615,282.327358 C466.622628,265.443547 464.602633,239.308533 444.033648,217.951772 C436.750013,210.391857 429.165321,203.117862 421.755436,195.674253 C394.257286,168.04664 394.242719,166.452273 422.347838,138.025053 C432.001083,128.265009 442.450671,119.222187 451.545503,108.972687 C468.613488,89.7336717 468.142479,64.1898812 451.234735,47.9893706 C434.710595,32.1474713 408.941094,33.300843 390.484363,51.6530218 C304.017904,137.598596 222.600681,216.723534 136.075953,302.610955 C106.266463,332.201239 65.7500294,336.950416 34.5080911,315.617886 C-4.83810518,288.755957 -11.1797234,234.760716 20.8634148,199.180654 C31.5849256,187.268941 44.7253542,183.626849 46.5996763,170.503612 C48.6488056,156.178542 28.6419283,140.117917 18.410849,127.963899 C-7.12071957,97.6321627 -6.09129916,52.8929721 21.4602641,24.4124454 C50.0898054,-5.18268424 96.0835326,-8.71549077 126.699078,18.4662813 C151.429447,40.4239581 175.611256,70.5480914 198.991725,93.9983668 C206.926031,101.950816 212.752939,111.613939 203.449309,121.592057 C193.485297,132.287399 182.972583,127.945294 173.921453,119.023625 C152.633816,98.0545521 130.457434,70.5860814 108.601673,50.2276174 C87.7996117,30.8480655 63.5839532,31.2551379 46.4479879,49.6848543 C30.1472128,67.2083501 31.4776901,89.8735574 50.5413908,110.052716 C62.1854953,122.381193 73.345184,140.937559 85.5039987,152.762042 C98.0464181,164.96452 97.1044013,176.168702 84.5911164,187.915647 C71.6408134,200.069665 63.8805631,205.592043 51.5663642,218.390592 C32.6046345,238.089986 30.6331972,261.898873 46.142484,278.835991 C63.9971013,298.327003 88.56723,299.024842 110.136501,277.861925 C172.401869,216.781687 229.088723,161.984169 290.839381,100.385398 C316.555468,74.7301476 341.747134,48.5224415 368.186729,23.6280284 C401.686594,-7.91523321 448.787433,-6.76186153 479.02423,25.115781 C507.959684,55.6171312 506.833149,102.958677 476.421545,134.632784 C445.849701,166.471657 446.315853,166.064585 475.566931,199.381519 C497.738316,224.634543 503.05537,253.812908 489.32329,285.012097 C476.261305,314.684764 451.822281,327.967923 429.849982,329.615597 C398.870255,330.521817 380.554341,322.593599 365.40438,308.171607 Z" id="path-1"></path>
  </defs>
  <g id="Logo" stroke="none" stroke-width="1" fill="none" fill-rule="evenodd">
    <mask id="mask-2" fill="white">
      <use xlink:href="#path-1"></use>
    </mask>
    <use id="Fill-3" fill="#FFFFFF" xlink:href="#path-1"></use>
  </g>
</svg>
