<?xml version="1.0" encoding="UTF-8"?>
<svg xmlns="http://www.w3.org/2000/svg" xmlns:xlink="http://www.w3.org/1999/xlink" width="20px" height="20px" viewBox="0 0 20 20">
  <!-- Generator: Sketch 49.1 (51147) - http://www.bohemiancoding.com/sketch -->
  <title>Logout</title>
  <desc>Created with Sketch.</desc>
  <defs></defs>
  <g id="Logout" stroke="none" stroke-width="1" fill="none" fill-rule="evenodd">
    <g id="noun_611103_cc" transform="translate(3.000000, 2.000000)" fill="#40BBC0" fill-rule="nonzero" stroke="#40BBC0" stroke-width="0.2">
      <g id="Group">
        <path d="M0.34414557,0.061041573 C0.148440918,0.0774137472 -0.00084759853,0.223636672 -3.59763268e-16,0.398120225 L-3.59763268e-16,14.5554236 C2.09688248e-05,14.7415793 0.170027136,14.8924836 0.379746835,14.8925022 L4.93670886,14.8925022 C5.07365921,14.8942214 5.20104356,14.8303533 5.27008394,14.7253541 C5.33912433,14.6203549 5.33912433,14.4904923 5.27008394,14.3854931 C5.20104356,14.2804939 5.07365921,14.2166257 4.93670886,14.2183449 L0.759493671,14.2183449 L0.759493671,0.735198876 L4.93670886,0.735198876 C5.07365921,0.736918075 5.20104356,0.6730499 5.27008394,0.568050725 C5.33912433,0.463051549 5.33912433,0.3331889 5.27008394,0.228189725 C5.20104356,0.123190549 5.07365921,0.0593223743 4.93670886,0.061041573 L0.379746835,0.061041573 C0.367886271,0.0605475834 0.356006134,0.0605475834 0.34414557,0.061041573 Z M9.85561709,3.42656124 C9.70021279,3.43152554 9.56391865,3.52008142 9.51161669,3.65007235 C9.45931474,3.78006328 9.50157325,3.92522292 9.61827532,4.01644888 L13.4513449,7.13969326 L4.17721519,7.13969326 L4.14161392,7.13969326 C3.94275171,7.14795169 3.77034608,7.31604438 3.77966772,7.49257247 C3.78898861,7.66908371 3.97835677,7.82215955 4.17721519,7.81385056 L13.4513449,7.81385056 L9.61827532,10.9318281 C9.51689945,11.012586 9.47194504,11.1353147 9.50043108,11.2535511 C9.52891713,11.3717876 9.62648995,11.4674609 9.75621007,11.5043509 C9.88593019,11.5412409 10.0279717,11.5137093 10.1285601,11.4321792 L14.6855222,7.72431404 C14.7652478,7.66039687 14.8107469,7.56949819 14.8107469,7.47413848 C14.8107469,7.37877878 14.7652478,7.2878801 14.6855222,7.22396292 L10.1285601,3.51609775 C10.0545789,3.45527094 9.95638171,3.42305822 9.85561709,3.42656124 Z" id="Shape"></path>
      </g>
    </g>
  </g>
</svg>
