<?xml version="1.0" encoding="UTF-8"?>
<svg xmlns="http://www.w3.org/2000/svg" xmlns:xlink="http://www.w3.org/1999/xlink" width="11px" height="10px" viewBox="0 0 11 10">
  <!-- Generator: Sketch 48.2 (47327) - http://www.bohemiancoding.com/sketch -->
  <title>Shape</title>
  <desc>Created with Sketch.</desc>
  <defs></defs>
  <g id="Rating-/-Colour-/-1" stroke="none" stroke-width="1" fill="none" fill-rule="evenodd">
    <path d="M8.66752219,9.99986213 C8.7715676,10.0026772 8.87175774,9.96226834 8.94204114,9.88914264 C9.01232455,9.81601693 9.04575666,9.7173998 9.03364446,9.61893366 L8.64874485,6.46607309 L10.9056258,4.1304822 C10.9928739,4.03995306 11.0222982,3.91174298 10.9826656,3.79479721 C10.943033,3.67785144 10.8404616,3.59022266 10.7141089,3.56536388 L7.44520099,2.93944017 L5.81167994,0.172857544 C5.7480146,0.0660154806 5.62898189,0 5.5,0 C5.37101811,0 5.2519854,0.0660154806 5.18832006,0.172857544 L3.55479901,2.93944017 L0.285891135,3.56536388 C0.159538371,3.59022266 0.0569669724,3.67785144 0.0173343969,3.79479721 C-0.0222981786,3.91174298 0.00712607578,4.03995306 0.0943742139,4.1304822 L2.35125515,6.46607309 L1.96634358,9.61893366 C1.95185994,9.74117347 2.00755304,9.86138049 2.11212275,9.93358095 C2.21669247,10.0057814 2.35396132,10.0188055 2.47143014,9.96767211 L5.5,8.64607474 L8.52856986,9.96767211 C8.57214653,9.98718421 8.61940464,9.99813213 8.66752219,9.99986213 Z" id="Shape" fill="#40BBC0" fill-rule="nonzero"></path>
  </g>
</svg>
