<?xml version="1.0" encoding="UTF-8"?>
<svg xmlns="http://www.w3.org/2000/svg" xmlns:xlink="http://www.w3.org/1999/xlink" width="11px" height="10px" viewBox="0 0 11 10">
  <!-- Generator: Sketch 48.2 (47327) - http://www.bohemiancoding.com/sketch -->
  <title>Shape</title>
  <desc>Created with Sketch.</desc>
  <defs></defs>
  <g id="Rating-/-Colour-/-1" stroke="none" stroke-width="1" fill="none" fill-rule="evenodd" transform="translate(-14.000000, 0.000000)">
    <path d="M22.6675222,9.99986213 C22.7715676,10.0026772 22.8717577,9.96226834 22.9420411,9.88914264 C23.0123245,9.81601693 23.0457567,9.7173998 23.0336445,9.61893366 L22.6487448,6.46607309 L24.9056258,4.1304822 C24.9928739,4.03995306 25.0222982,3.91174298 24.9826656,3.79479721 C24.943033,3.67785144 24.8404616,3.59022266 24.7141089,3.56536388 L21.445201,2.93944017 L19.8116799,0.172857544 C19.7480146,0.0660154806 19.6289819,0 19.5,0 C19.3710181,0 19.2519854,0.0660154806 19.1883201,0.172857544 L17.554799,2.93944017 L14.2858911,3.56536388 C14.1595384,3.59022266 14.056967,3.67785144 14.0173344,3.79479721 C13.9777018,3.91174298 14.0071261,4.03995306 14.0943742,4.1304822 L16.3512552,6.46607309 L15.9663436,9.61893366 C15.9518599,9.74117347 16.007553,9.86138049 16.1121228,9.93358095 C16.2166925,10.0057814 16.3539613,10.0188055 16.4714301,9.96767211 L19.5,8.64607474 L22.5285699,9.96767211 C22.5721465,9.98718421 22.6194046,9.99813213 22.6675222,9.99986213 Z M22.2488114,9.09673499 L19.6502068,7.95934678 C19.5549013,7.9174423 19.4450987,7.9174423 19.3497932,7.95934678 L16.7511886,9.09673499 L17.0816459,6.38917156 C17.0936001,6.29070481 17.0600253,6.19215164 16.9896489,6.11912992 L15.0519588,4.11438151 L17.8570903,3.57967043 C17.9590364,3.55954618 18.0467553,3.49819094 18.0974283,3.41156536 L19.5,1.03663174 L20.9025717,3.41156536 C20.9532447,3.49819094 21.0409636,3.55954618 21.1429097,3.57967043 L23.9480412,4.11438151 L22.0103631,6.11912992 C21.9399824,6.1921497 21.9064031,6.2907031 21.9183541,6.38917156 L22.2488114,9.09673499 Z" id="Shape" fill="#40BBC0" fill-rule="nonzero"></path>
  </g>
</svg>
