<?xml version="1.0" encoding="UTF-8"?>
<svg xmlns="http://www.w3.org/2000/svg" xmlns:xlink="http://www.w3.org/1999/xlink" width="20px" height="20px" viewBox="0 0 20 20">
  <!-- Generator: Sketch 48.2 (47327) - http://www.bohemiancoding.com/sketch -->
  <title>Search</title>
  <desc>Created with Sketch.</desc>
  <defs></defs>
  <g id="Search-Bar" stroke="none" stroke-width="1" fill="none" fill-rule="evenodd" transform="translate(-333.000000, -22.000000)">
    <g id="Icon-/-White-/-Search" transform="translate(333.000000, 22.000000)" fill="#FFFFFF" fill-rule="nonzero">
      <path d="M19.6428571,18.1071429 L16,14.4642857 C17.25,12.8571429 17.9285714,10.9285714 17.9285714,8.96428571 C17.9285714,4.03571429 13.9285714,0.0357142857 9,0.0357142857 C4.07142857,0.0357142857 0.0714285714,4.03571429 0.0714285714,8.96428571 C0.0714285714,13.8928571 4.07142857,17.8928571 9,17.8928571 C11,17.8928571 12.9642857,17.2142857 14.5,15.9642857 L18.1428571,19.6071429 C18.3571429,19.8214286 18.6071429,19.9285714 18.8928571,19.9285714 C19.1785714,19.9285714 19.4285714,19.8214286 19.6428571,19.6071429 C20.0714286,19.1785714 20.0714286,18.5357143 19.6428571,18.1071429 Z M15.7857143,9 C15.7857143,12.75 12.75,15.7857143 9,15.7857143 C5.25,15.7857143 2.21428571,12.75 2.21428571,9 C2.21428571,5.25 5.25,2.21428571 9,2.21428571 C12.75,2.21428571 15.7857143,5.25 15.7857143,9 Z" id="Shape"></path>
    </g>
  </g>
</svg>
