<?xml version="1.0" encoding="UTF-8"?>
<svg xmlns="http://www.w3.org/2000/svg" xmlns:xlink="http://www.w3.org/1999/xlink" width="29px" height="29px" viewBox="0 0 29 29">
  <!-- Generator: Sketch 48.2 (47327) - http://www.bohemiancoding.com/sketch -->
  <title>search-icon</title>
  <desc>Created with Sketch.</desc>
  <defs></defs>
  <g id="Symbols" stroke="none" stroke-width="1" fill="none" fill-rule="evenodd">
    <g id="search-icon" fill="#A2A2A2" fill-rule="nonzero">
      <g id="Search" transform="translate(1.000000, 1.000000)">
        <path d="M10.032054,0 C4.49942409,0 0,4.49942409 0,10.032054 C0,15.5646836 4.49942409,20.0641079 10.032054,20.0641079 C12.5580877,20.0641079 14.8606594,19.1177401 16.6260401,17.5717698 L18.6455126,19.5912424 L25.8884144,26.8321185 L26.845212,25.8753209 L19.5912424,18.6455126 L17.5717698,16.6260401 C19.1177401,14.8606594 20.0641079,12.5580877 20.0641079,10.032054 C20.0641079,4.49942409 15.5646836,0 10.032054,0 Z M10.032054,1.33760719 C14.8418915,1.33760719 18.7265007,5.22221672 18.7265007,10.032054 C18.7265007,14.8418915 14.8418915,18.7265007 10.032054,18.7265007 C5.22221672,18.7265007 1.33760719,14.8418915 1.33760719,10.032054 C1.33760719,5.22221672 5.22221672,1.33760719 10.032054,1.33760719 Z" id="Shape"></path>
      </g>
    </g>
  </g>
</svg>
