<?xml version="1.0" encoding="UTF-8"?>
<svg xmlns="http://www.w3.org/2000/svg" xmlns:xlink="http://www.w3.org/1999/xlink" width="20px" height="20px" viewBox="0 0 20 20">
  <!-- Generator: Sketch 49.1 (51147) - http://www.bohemiancoding.com/sketch -->
  <title>Profile Icons / Settings</title>
  <desc>Created with Sketch.</desc>
  <defs></defs>
  <g id="Profile-Icons-/-Settings" stroke="none" stroke-width="1" fill="none" fill-rule="evenodd">
    <path d="M7.52,3.11935484 L7.52,1.58064516 C7.52,1.26129032 7.268,1 6.96,1 C6.652,1 6.4,1.26129032 6.4,1.58064516 L6.4,3.11935484 C5.588,3.38064516 5,4.13548387 5,5.06451613 C5,5.99354839 5.588,6.7483871 6.4,7.00967742 L6.4,18.4193548 C6.4,18.7387097 6.652,19 6.96,19 C7.268,19 7.52,18.7387097 7.52,18.4193548 L7.52,7.00967742 C8.332,6.7483871 8.92,5.99354839 8.92,5.06451613 C8.92,4.13548387 8.332,3.38064516 7.52,3.11935484 Z M6.96,6.51612903 C6.176,6.51612903 5.56,5.87741935 5.56,5.06451613 C5.56,4.2516129 6.176,3.61290323 6.96,3.61290323 C7.744,3.61290323 8.36,4.2516129 8.36,5.06451613 C8.36,5.87741935 7.744,6.51612903 6.96,6.51612903 Z M12.56,12.9903226 L12.56,1.58064516 C12.56,1.26129032 12.308,1 12,1 C11.692,1 11.44,1.26129032 11.44,1.58064516 L11.44,12.9903226 C10.628,13.2516129 10.04,14.0064516 10.04,14.9354839 C10.04,15.8645161 10.628,16.6193548 11.44,16.8806452 L11.44,18.4193548 C11.44,18.7387097 11.692,19 12,19 C12.308,19 12.56,18.7387097 12.56,18.4193548 L12.56,16.8806452 C13.372,16.6193548 13.96,15.8645161 13.96,14.9354839 C13.96,14.0064516 13.372,13.2516129 12.56,12.9903226 Z M12,16.3870968 C11.216,16.3870968 10.6,15.7483871 10.6,14.9354839 C10.6,14.1225806 11.216,13.483871 12,13.483871 C12.784,13.483871 13.4,14.1225806 13.4,14.9354839 C13.4,15.7483871 12.784,16.3870968 12,16.3870968 Z M19,10 C19,9.07096774 18.412,8.31612903 17.6,8.05483871 L17.6,1.58064516 C17.6,1.26129032 17.348,1 17.04,1 C16.732,1 16.48,1.26129032 16.48,1.58064516 L16.48,8.05483871 C15.668,8.31612903 15.08,9.07096774 15.08,10 C15.08,10.9290323 15.668,11.683871 16.48,11.9451613 L16.48,18.4193548 C16.48,18.7387097 16.732,19 17.04,19 C17.348,19 17.6,18.7387097 17.6,18.4193548 L17.6,11.9451613 C18.412,11.683871 19,10.9290323 19,10 Z M17.04,11.4516129 C16.256,11.4516129 15.64,10.8129032 15.64,10 C15.64,9.18709677 16.256,8.5483871 17.04,8.5483871 C17.824,8.5483871 18.44,9.18709677 18.44,10 C18.44,10.8129032 17.824,11.4516129 17.04,11.4516129 Z" id="Shape" stroke="#40BBC0" stroke-width="0.2" fill="#40BBC0" fill-rule="nonzero"></path>
  </g>
</svg>
