<?xml version="1.0" encoding="UTF-8"?>
<svg width="545px" height="545px" viewBox="0 0 545 545" version="1.1" xmlns="http://www.w3.org/2000/svg" xmlns:xlink="http://www.w3.org/1999/xlink">
    <!-- Generator: Sketch 48.2 (47327) - http://www.bohemiancoding.com/sketch -->
    <title>icon</title>
    <desc>Created with Sketch.</desc>
    <defs></defs>
    <g id="Page-1" stroke="none" stroke-width="1" fill="none" fill-rule="evenodd">
        <g id="icon" fill="#2B323D" fill-rule="nonzero">
            <path d="M272.9,229.4 C260.7,229.4 250.7,239.4 250.7,251.6 C250.7,263.8 260.7,273.8 272.9,273.8 C285.1,273.8 295.1,263.8 295.1,251.6 C295.1,239.4 285.1,229.4 272.9,229.4 Z M193.2,229.4 C181,229.4 171,239.4 171,251.6 C171,263.8 181,273.8 193.2,273.8 C206.1,273.8 216.2,263.7 215.4,251.6 C215.4,239.4 205.4,229.4 193.2,229.4 Z" id="Shape"></path>
            <path d="M272.1,0 C2.1,0 0,121.8 0,272.1 C0,422.4 2.1,544.2 272.1,544.2 C542.1,544.2 544.2,422.4 544.2,272.1 C544.2,121.8 542.1,0 272.1,0 Z M287.9,379.4 C271.4,381.6 256.4,381.6 241.3,379.4 C188.9,433.2 133.6,422.4 144.4,413.8 C171,393 176.7,373.6 175.3,357.8 C140.8,337.7 116.4,306.8 112.1,269.5 C103.5,199.1 168.8,134.5 257.1,124.5 C345.4,115.2 424.3,164 432.2,234.3 C440.1,304.7 375.5,369.2 287.9,379.4 Z" id="Shape"></path>
            <path d="M352.5,229.4 C340.3,229.4 330.3,239.4 330.3,251.6 C330.3,263.8 340.3,273.8 352.5,273.8 C364.7,273.8 374.8,263.7 374.7,251.6 C374.7,239.4 364.7,229.4 352.5,229.4 Z" id="Shape"></path>
        </g>
    </g>
</svg>