<?xml version="1.0" encoding="UTF-8"?>
<svg width="512px" height="498px" viewBox="0 0 512 498" version="1.1" xmlns="http://www.w3.org/2000/svg" xmlns:xlink="http://www.w3.org/1999/xlink">
    <!-- Generator: Sketch 48.2 (47327) - http://www.bohemiancoding.com/sketch -->
    <title>icon</title>
    <desc>Created with Sketch.</desc>
    <defs></defs>
    <g id="Page-1" stroke="none" stroke-width="1" fill="none" fill-rule="evenodd">
        <g id="icon" transform="translate(-96.000000, -62.000000)" fill="#2A323D" fill-rule="nonzero">
            <path d="M650.201647,311.619558 L598.436263,259.384691 L295.22064,259.384691 C269.296145,213.70973 220.643501,182.878168 164.787823,183.000362 C81.5734728,182.826717 14.1865066,250.908262 13.9999994,334.772171 C14.1865066,418.83545 81.5734728,486.910563 164.787823,487.039189 C220.48915,486.949151 269.032462,456.214057 295.001976,410.661291 L355.989817,410.661291 L404.301603,362.362368 L441.262177,399.335805 L476.743557,363.847994 L513.202491,400.294066 L550.163065,363.352786 L587.123639,400.294066 L650.208078,337.235352 C659.321204,327.736349 659.55273,321.073542 650.201647,311.619558 Z M98.764288,374.703997 C76.5249169,374.498196 58.6395234,356.40057 58.8453244,334.276962 C58.6395234,311.851084 76.5249169,293.766321 98.764288,293.869222 C120.637076,293.753458 138.522469,311.851084 138.689683,334.276962 C138.528901,356.40057 120.643507,374.491765 98.764288,374.703997 Z" id="Shape" transform="translate(335.564599, 335.019595) scale(-1, 1) rotate(45.000000) translate(-335.564599, -335.019595) "></path>
        </g>
    </g>
</svg>