<?xml version="1.0" encoding="UTF-8"?>
<svg xmlns="http://www.w3.org/2000/svg" xmlns:xlink="http://www.w3.org/1999/xlink" width="300px" height="142px" viewBox="0 0 300 142">
  <!-- Generator: Sketch 48.2 (47327) - http://www.bohemiancoding.com/sketch -->
  <title>Artboard</title>
  <desc>Created with Sketch.</desc>
  <defs>
    <linearGradient x1="121.844016%" y1="-33.891598%" x2="-4.19483532%" y2="119.143447%" id="linearGradient-1">
      <stop stop-color="#40BBC0" offset="0%"></stop>
      <stop stop-color="#40F5E7" offset="100%"></stop>
    </linearGradient>
    <path d="M181.389991,110.126943 C175.343525,104.349735 169.536118,98.3251402 163.550408,92.4857548 C161.029066,90.0264396 159.758489,87.1358512 162.220396,84.3669718 C164.890985,81.362612 167.794028,82.9871623 170.196501,85.3737168 C175.660509,90.8056417 181.071687,96.2878377 186.566073,101.686689 C192.284989,107.30647 199.274481,107.818441 204.169239,103.071791 C208.921355,98.4627243 208.371916,91.3281965 202.777152,85.4980716 C200.796003,83.4343105 198.732967,81.448602 196.717479,79.4165911 C189.237982,71.8746029 189.23402,71.4393609 196.878612,63.6790903 C199.504294,61.0147218 202.346583,58.5461461 204.820377,55.7481624 C209.462869,50.4961551 209.334754,43.5230241 204.735848,39.10049 C200.241282,34.7758523 193.231978,35.0907081 188.211747,40.1006203 C164.69287,63.562673 142.547385,85.1627781 119.012659,108.608956 C110.904478,116.686728 99.884008,117.983193 91.3862008,112.159683 C80.6840354,104.826717 78.9591152,90.0867002 87.6748488,80.3737941 C90.5910998,77.1220475 94.1652963,76.1278027 94.6751119,72.5453252 C95.2324751,68.6347626 89.7906045,64.2504156 87.0077509,60.9325228 C80.0631643,52.6523431 80.3431666,40.4391111 87.8371918,32.6642882 C95.6244271,24.5851929 108.134721,23.6207815 116.462149,31.0410608 C123.18881,37.0352283 129.766262,45.2587349 136.125749,51.6603629 C138.28388,53.8312807 139.868799,56.4691907 137.338212,59.1930907 C134.628001,62.1127834 131.768543,60.9274437 129.306635,58.4919411 C123.516398,52.76765 117.484422,45.2691057 111.539655,39.711503 C105.881494,34.4211309 99.2948353,34.5322565 94.6338527,39.5633355 C90.2000419,44.3470278 90.5619317,50.5343422 95.7472583,56.0429966 C98.9144547,59.4085146 101.94989,64.4741674 105.257088,67.7021014 C108.668626,71.0332234 108.412397,74.0918231 105.008784,77.2985902 C101.486301,80.616483 99.3755132,82.1240222 96.0260511,85.6178638 C90.8684606,90.9955489 90.3322297,97.4950732 94.5507557,102.118692 C99.4072115,107.439491 106.090287,107.629992 111.957128,101.852784 C128.893308,85.1786532 144.312133,70.2196252 161.108312,53.4039415 C168.103087,46.4003832 174.95522,39.2460116 182.14679,32.4501523 C191.258754,23.8392416 204.070182,24.1540975 212.294591,32.8562899 C220.165034,41.182772 219.858616,54.106414 211.58666,62.7530436 C203.271119,71.4446526 203.397912,71.333527 211.354205,80.4286278 C217.384822,87.3223834 218.831061,95.2877073 215.095935,103.80469 C211.543075,111.904952 204.895661,115.531086 198.919195,115.980881 C190.492709,116.228267 185.510781,114.063964 181.389991,110.126943 Z" id="path-2"></path>
  </defs>
  <g id="Logo" stroke="none" stroke-width="1" fill="none" fill-rule="evenodd">
    <g id="Artboard">
      <mask id="mask-3" fill="white">
        <use xlink:href="#path-2"></use>
      </mask>
      <use id="Fill-3" fill="url(#linearGradient-1)" xlink:href="#path-2"></use>
    </g>
  </g>
</svg>
