<?xml version="1.0" encoding="UTF-8"?>
<svg xmlns="http://www.w3.org/2000/svg" xmlns:xlink="http://www.w3.org/1999/xlink" width="200px" height="200px" viewBox="0 0 200 200">
  <!-- Generator: Sketch 48.2 (47327) - http://www.bohemiancoding.com/sketch -->
  <title>Favicon</title>
  <desc>Created with Sketch.</desc>
  <defs>
    <linearGradient x1="121.844016%" y1="-33.891598%" x2="-4.19483532%" y2="119.143447%" id="linearGradient-1">
      <stop stop-color="#40BBC0" offset="0%"></stop>
      <stop stop-color="#40F5E7" offset="100%"></stop>
    </linearGradient>
    <path d="M135.913843,144.704715 C128.995975,138.118698 122.351618,131.25066 115.50326,124.59376 C112.618549,121.790141 111.164859,118.49487 113.981571,115.338348 C117.037039,111.913378 120.358462,113.765365 123.107173,116.486037 C129.358641,122.678431 135.549665,128.928135 141.835889,135.082826 C148.379002,141.489375 156.375804,142.073023 161.975983,136.661841 C167.412962,131.407506 166.784339,123.274144 160.383271,116.627802 C158.116604,114.275114 155.756248,112.011406 153.450292,109.694914 C144.892867,101.097047 144.888334,100.600871 153.634647,91.7541629 C156.638737,88.7167829 159.890649,85.9026066 162.720961,82.7129051 C168.032517,76.7256168 167.88594,68.7762474 162.624249,63.7345586 C157.481937,58.8044716 149.462469,59.1634072 143.718734,64.8747072 C116.810372,91.6214472 91.473332,116.245567 64.5468366,142.974209 C55.2701233,152.18287 42.6614092,153.66084 32.9389179,147.022039 C20.6943817,138.662457 18.7208701,121.858838 28.6926947,110.786125 C32.0292288,107.079134 36.1185302,105.945695 36.7018193,101.861671 C37.3395083,97.4036294 31.1133681,92.4054737 27.9294562,88.623076 C19.9840321,79.1836711 20.3043877,65.2605866 28.8784342,56.3972885 C37.7879475,47.1871199 52.1011953,46.0876909 61.6287532,54.5468093 C69.3248439,61.3801602 76.850223,70.7549577 84.1262247,78.0528137 C86.5953809,80.52766 88.4087146,83.5348774 85.5134251,86.6401234 C82.4126243,89.968573 79.141068,88.6172858 76.3243562,85.8408128 C69.6996435,79.315121 62.7983535,70.7667804 55.9968407,64.4311134 C49.5232392,58.4000893 41.9873262,58.5267724 36.6546138,64.2622025 C31.5818126,69.7156117 31.9958572,76.7691501 37.9284808,83.0490162 C41.5521261,86.8857067 45.0250213,92.6605509 48.8088444,96.3403956 C52.7120453,100.137875 52.4188897,103.624678 48.5247554,107.280393 C44.4946211,111.062791 42.0796312,112.781385 38.2474525,116.764365 C32.3465622,122.894926 31.733051,130.304383 36.559541,135.575309 C42.1158979,141.64102 49.762122,141.858191 56.4744791,135.272174 C75.8514616,116.263665 93.4924107,99.2103728 112.709215,80.0404933 C120.712062,72.0564369 128.551708,63.9004532 136.77971,56.1531736 C147.204868,46.3367355 161.862649,46.6956711 171.27234,56.6161705 C180.277054,66.10836 179.926476,80.841312 170.462385,90.6984697 C160.948427,100.606904 161.093494,100.480221 170.196429,110.848636 C177.096164,118.707517 178.750831,127.787986 174.477408,137.497347 C170.412518,146.731646 162.807094,150.865439 155.969315,151.378204 C146.328423,151.660225 140.628511,149.192919 135.913843,144.704715 Z" id="path-2"></path>
  </defs>
  <g id="Logo" stroke="none" stroke-width="1" fill="none" fill-rule="evenodd">
    <g id="Favicon">
      <mask id="mask-3" fill="white">
        <use xlink:href="#path-2"></use>
      </mask>
      <use id="Fill-3" fill="url(#linearGradient-1)" xlink:href="#path-2"></use>
    </g>
  </g>
</svg>
